<svg id="Layer_1" data-name="Layer 1" xmlns="http://www.w3.org/2000/svg" viewBox="0 0 300 300">
	<defs>
		<style>
		.hzvuihiuohiuohiouhiouhiouhoiuwheroiu,
		.ncmvnzmxncvkmzxhchvjkzhxckvh {
			stroke: #000;
		}
		
		.hzvuihiuohiuohiouhiouhiouhoiuwheroiu,
		.ybiuoyoqaiuwyoiuzhcoixuvgoiugaowiuegrf,
		.hnxviuniuonaiuowebnfiougahwieoufgh,
		.uqywieouryiouyiuyzxcivouyff,
		.ncmvnzmxncvkmzxhchvjkzhxckvh {
			stroke-miterlimit: 10;
		}
		
		.hzvuihiuohiuohiouhiouhiouhoiuwheroiu,
		.ybiuoyoqaiuwyoiuzhcoixuvgoiugaowiuegrf,
		.hnxviuniuonaiuowebnfiougahwieoufgh,
		.uqywieouryiouyiuyzxcivouyff {
			stroke-width: 8px;
		}
		
		.ybiuoyoqaiuwyoiuzhcoixuvgoiugaowiuegrf,
		.hnxviuniuonaiuowebnfiougahwieoufgh,
		.uqywieouryiouyiuyzxcivouyff {
			stroke: #fff;
		}
		
		.hnxviuniuonaiuowebnfiougahwieoufgh {
			fill: #ffe94d;
		}
		
		.uqywieouryiouyiuyzxcivouyff {
			fill: none;
		}
		
		.ncmvnzmxncvkmzxhchvjkzhxckvh {
			stroke-width: 6px;
		}
		
		.yuiqwyeruioqyweiroyqiuoweyriahdskfjhasdkjfh {
			fill: #63c7a9;
		}
		
		.nzucjvniunqi3emfioioefim {
			fill: #ffc64e;
		}
		
		.hh89h982h38998n39898yaf {
			fill: #5468f3;
		}
		
		.hh89h982h38998n39898yafhhvhvuyiuvyi7869786 {
			fill: #f96b97;
		}
		</style>
	</defs>
	<rect class="hzvuihiuohiuohiouhiouhiouhoiuwheroiu" x="87" y="164" width="49" height="65" />
	<rect class="hzvuihiuohiuohiouhiouhiouhoiuwheroiu" x="173.4" y="181" width="47.6" height="47.03" />
	<rect class="hzvuihiuohiuohiouhiouhiouhoiuwheroiu" x="113" y="133" width="82" height="95" />
	<path class="ybiuoyoqaiuwyoiuzhcoixuvgoiugaowiuegrf" d="M214.48,232.27c49.13-31.35,59.28-75.53,39.16-96.45-15.14-15.73-45.2-16-54.29-15.83" />
	<path class="ybiuoyoqaiuwyoiuzhcoixuvgoiugaowiuegrf" d="M186.27,232a183.27,183.27,0,0,0,26.22-43.09c5.09-11.89,8.29-19.57,8-30.25-.18-6.33-.78-28.19-19-38.49-14.18-8-34.07-6.23-49.93,4.3" />
	<path class="ybiuoyoqaiuwyoiuzhcoixuvgoiugaowiuegrf" d="M86.33,232.22C37.19,200.87,27,156.7,47.17,135.78c15.14-15.74,45.2-16,54.29-15.84" />
	<path class="ybiuoyoqaiuwyoiuzhcoixuvgoiugaowiuegrf" d="M116.59,232.23a183.49,183.49,0,0,1-26.22-43.1c-5.1-11.89-8.29-19.57-8-30.24.18-6.34.78-28.2,19-38.5,14.18-8,34.07-6.23,49.92,4.3" />
	<path class="ybiuoyoqaiuwyoiuzhcoixuvgoiugaowiuegrf" d="M231.49,278.79V259.65a14.27,14.27,0,0,0-4.22-10.13,14.7,14.7,0,0,0-10.13-4.22H78.41a14.4,14.4,0,0,0-14.35,14.35v18.52H231.49V262.63" />
	<rect class="hnxviuniuonaiuowebnfiougahwieoufgh" x="77.37" y="228.2" width="146" height="17" />
	<line class="uqywieouryiouyiuyzxcivouyff" x1="150.4" y1="124.69" x2="150.37" y2="232.22" />
	<polygon class="ncmvnzmxncvkmzxhchvjkzhxckvh" points="150.87 106.59 168.73 81.18 150.87 92.38 133.01 81.18 150.87 106.59" />
	<polygon class="ncmvnzmxncvkmzxhchvjkzhxckvh" points="150.38 78.5 173.54 64.6 150.38 23.89 127.22 63.44 150.38 78.5" />
	<circle class="yuiqwyeruioqyweiroyqiuoweyriahdskfjhasdkjfh" cx="62.38" cy="158.22" r="6.01" />
	<circle class="nzucjvniunqi3emfioioefim" cx="117.04" cy="147.22" r="6.01" />
	<circle class="hh89h982h38998n39898yaf" cx="185.7" cy="146.22" r="6.01" />
	<circle class="hh89h982h38998n39898yafhhvhvuyiuvyi7869786" cx="239.36" cy="157.22" r="6.01" />
</svg>