<svg id="Layer_1" data-name="Layer 1" xmlns="http://www.w3.org/2000/svg" viewBox="0 0 300 300">
	<defs>
		<style>
		.ijawoifheoiphzxuiochvzoxchvoiqawhef,
		.vnzvnzhhfff8ilzh8iywokhdaoiahoihcljkqoi,
		.ziuhxcviuohawiuoeghfoiuawgefiuo,
		.nzxicjvbnoiaughewrfiuogawoiueftgy {
			stroke: #fff;
		}
		
		.ijawoifheoiphzxuiochvzoxchvoiqawhef,
		.vnzvnzhhfff8ilzh8iywokhdaoiahoihcljkqoi,
		.ibvufyhfhfhffififiofofwowowwf,
		.ziuhxcviuohawiuoeghfoiuawgefiuo,
		.nzxicjvbnoiaughewrfiuogawoiueftgy,
		.iah9iduhf9a08hw3098yh,
		.uiqyweriuyizlxyhilayeifl,
		.hzxuicvhiuhoiuagiuwerqh {
			stroke-miterlimit: 10;
		}
		
		.ijawoifheoiphzxuiochvzoxchvoiqawhef,
		.uiqyweriuyizlxyhilayeifl {
			stroke-width: 3px;
		}
		
		.vnzvnzhhfff8ilzh8iywokhdaoiahoihcljkqoi,
		.iah9iduhf9a08hw3098yh {
			stroke-width: 4px;
		}
		
		.ibvufyhfhfhffififiofofwowowwf,
		.iah9iduhf9a08hw3098yh,
		.uiqyweriuyizlxyhilayeifl,
		.hzxuicvhiuhoiuagiuwerqh {
			fill: #ff007a;
		}
		
		.ibvufyhfhfhffififiofofwowowwf {
			stroke: #000;
		}
		
		.ibvufyhfhfhffififiofofwowowwf,
		.ziuhxcviuohawiuoeghfoiuawgefiuo {
			stroke-width: 6px;
		}
		
		.nzxicjvbnoiaughewrfiuogawoiueftgy,
		.bzuxibcvoiuaghwiueyfhg {
			fill: #fff;
		}
		
		.nzxicjvbnoiaughewrfiuogawoiueftgy {
			stroke-width: 5px;
		}
		
		.iah9iduhf9a08hw3098yh,
		.uiqyweriuyizlxyhilayeifl,
		.hzxuicvhiuhoiuagiuwerqh {
			stroke: #ff007a;
		}
		
		.hzxuicvhiuhoiuagiuwerqh {
			stroke-width: 2px;
		}
		</style>
	</defs>
	<path class="ijawoifheoiphzxuiochvzoxchvoiqawhef" d="M133.29,59.54c2.23-4.47,5-9.84,8.12-15.9s3.93-7.39,5-7.32c3.06.19,6.19,11.91,4,22.51a33.49,33.49,0,0,1-1.77,5.76" />
	<path class="vnzvnzhhfff8ilzh8iywokhdaoiahoihcljkqoi" d="M140.47,108.59c-2.49,0-4.06-1.9-5.89-4.11s-5.31-7.36-5.43-10.18a2.5,2.5,0,0,0-.8-2,1.27,1.27,0,0,0-.87-.17c-2.09.15-7.67-6-8-10a3.35,3.35,0,0,0-.78-2.17,2.88,2.88,0,0,0-1.52-.72c-3.07-.8-6.32-6.49-6.88-8.69a3.78,3.78,0,0,0-2-2.6c-2.09-1.1-7.12-6.3-7.59-9.56a3.07,3.07,0,0,0-.77-1.84,2.58,2.58,0,0,0-1.26-.66c-2.72-.69-8.33-7.23-8.05-10.19a2.13,2.13,0,0,0-.3-1.53,2,2,0,0,0-1.26-.66c-3.29-.6-8.35-10.88-8.35-10.88-5.64-11.46-7.94-13.7-7.11-14.46,1.6-1.48,10.9,6.57,14.19,9.41,5.34,4.63,7.94,8.19,8.41,9.08A4.56,4.56,0,0,0,97,37.78,5,5,0,0,0,98.72,39c2.38,1,9,6.12,8.9,8.88a1.89,1.89,0,0,0,.23,1.27,2.45,2.45,0,0,0,1.74.79c3.44.47,9.46,6.62,9.53,9.35a1.84,1.84,0,0,0,.42,1.35,1.59,1.59,0,0,0,1.29.28c2.6-.17,7.67,5.45,7.9,8.21a2.58,2.58,0,0,0,.41,1.35,3.24,3.24,0,0,0,1.67,1.15c2.77,1,8.12,5.48,8.36,8.34a2.23,2.23,0,0,0,.42,1.35,2.77,2.77,0,0,0,2,.81c2.17.17,3.39,2.79,7.09,6.35s5.33,3.72,5.7,6.12a7.11,7.11,0,0,1-.53,3.61c-1.72,4.93-6.51,7.46-9.41,9C142.66,108.13,141.73,108.6,140.47,108.59Z" />
	<path class="vnzvnzhhfff8ilzh8iywokhdaoiahoihcljkqoi" d="M128.35,92.35a13.4,13.4,0,0,0,7.44-3.66,13,13,0,0,0,3.8-7.4" />
	<path class="vnzvnzhhfff8ilzh8iywokhdaoiahoihcljkqoi" d="M118.74,80a15.85,15.85,0,0,0,7.06-4.24,15.32,15.32,0,0,0,3.34-5.28" />
	<path class="vnzvnzhhfff8ilzh8iywokhdaoiahoihcljkqoi" d="M109.55,68.94a21.52,21.52,0,0,0,10-8.33" />
	<path class="vnzvnzhhfff8ilzh8iywokhdaoiahoihcljkqoi" d="M99.94,56.56a17.88,17.88,0,0,0,4.74-3.29,17.39,17.39,0,0,0,3.17-4.15" />
	<path class="vnzvnzhhfff8ilzh8iywokhdaoiahoihcljkqoi" d="M90.33,44.18A12.7,12.7,0,0,0,94.93,41,12.17,12.17,0,0,0,97,37.78" />
	<path class="ibvufyhfhfhffififiofofwowowwf" d="M149.43,70.51c.8-3.23,3.59-12.59,12.4-18.61,7.39-5,15.07-5,19.85-5,29.59.44,51.78,27.2,50.86,28.53-.37.52-4.37-2.77-11.17-2.48a19,19,0,0,0-6.2,1.24c-11.21,4.56-30.59-6-31-5-.36.83,12.49,10.53,31,11.16,4,.14,3.81-.31,6.2,0,18.36,2.37,28.24,28.24,29.77,32.25,6.78,17.74,5.1,34.53,3.72,34.73-1.09.16-.18-10.37-7.44-16.12-8.08-6.4-20.07-2-23.57-8.69a14.48,14.48,0,0,1-1.24-5s.64,3.17,1.24,5c2.47,7.39,10.24,9.07,16.13,13.65,9.49,7.38,11.3,20.12,12.4,28.53a59.35,59.35,0,0,1-2.48,26c-.5,1.69-3,10.17-5,9.93-1.43-.19-1.26-5.17-2.48-11.17-2.85-14-11.52-24-12.41-23.56s4.37,8.63,7.45,23.56c2.78,13.5,1.6,21.39,1.24,23.57a54.12,54.12,0,0,1-5,14.88c-2.56,5.1-7.63,13.23-9.93,12.41-1.42-.51-.84-4.13-1.24-9.92a62.25,62.25,0,0,0-3.72-17.37" />
	<path class="ziuhxcviuohawiuoeghfoiuawgefiuo" d="M150.82,126.14a32.16,32.16,0,0,1-4.59,7.63,34.34,34.34,0,0,1-7.66,6.85,32.32,32.32,0,0,1-8.78,4.19c-9,2.53-11.85-2.51-20.17-.85-7.35,1.47-12.55,6.89-14.47,8.91C89.33,158.93,89.05,164,84,165.11c-2.76.61-6.66,0-7.79-2.22a4.35,4.35,0,0,1,0-3.34c2.53-7.83,12.16-16.8,12.25-16.71a32.39,32.39,0,0,0-7.8,7.8c-1.62,2.25-2.84,4.51-5.78,7-1.65,1.42-2.47,2.15-3.5,2.34-5.24.94-12.85-7.41-12.85-15.19,0-4.36,2.3-7.65,4.67-10.51,26.63-32,27.71-36.87,28-39.71C92,88.35,90,83.81,93.58,79.41c2.28-2.77,4.6-2.84,10.52-5.84,7.31-3.72,8.5-6,14-9.35,0,0,8.11-4.91,21-7,12.29-2,22,1.71,28.79,4.07a83.68,83.68,0,0,1,22.6,12.29,85.72,85.72,0,0,1,19.8,18.94c7.37,9.93,10.54,19,12.75,25.52,4.06,11.92,5,21.39,5.8,30.15a181.66,181.66,0,0,1,0,32.48,189,189,0,0,1-3.48,23.19c-3.37,15.72-5.31,14.93-7,25.52-2.49,16,.4,27.76-3.48,29-1.48.47-3.08-.85-3.48-1.16-13.24-10.1-119.38,13-126.08-8.43-5.72-18.3,19.17-55.24,43.21-71.25,4.83-3.22,14.58-9.8,19.86-22.19C153.08,144.53,152.28,133.72,150.82,126.14Z" />
	<path class="ziuhxcviuohawiuoeghfoiuawgefiuo" d="M233.39,279V260.28a14,14,0,0,0-4.13-9.92,14.36,14.36,0,0,0-9.91-4.12H83.63a14.08,14.08,0,0,0-14,14V278.4h163.8V263.19" />
	<path class="ijawoifheoiphzxuiochvzoxchvoiqawhef" d="M144.78,63.07c4.28-7.14,7.4-13.13,9.53-17.42,2.43-4.92,3.43-7.37,5-7.33,2.77.07,5.35,8.1,5.33,14.82a28,28,0,0,1-3.72,13.65" />
	<path class="nzxicjvbnoiaughewrfiuogawoiueftgy" d="M114.4,84.75c-1.88-.33-6.23-.9-9.45.66-1.76.85-3.73,2.61-2.83,3.51,1.08,1.08,6.37,1.08,9.45-.65A5.73,5.73,0,0,0,114.4,84.75Z" />
	<path class="iah9iduhf9a08hw3098yh" d="M115.12,206.12c-.4-.71,11.1-6.28,23.38-17.82,4.89-4.59,10.19-9.57,14.48-16.7,11.26-18.72,7.57-39,8.9-39,1.11,0,3.15,11.28,1.12,23.38a50.63,50.63,0,0,1-4.46,14.48c-3.87,7.93-8.85,12.57-14.47,17.81a92.37,92.37,0,0,1-16.7,12.25C121.78,203.77,115.42,206.64,115.12,206.12Z" />
	<path class="bzuxibcvoiuaghwiueyfhg" d="M76.34,134.71a20.45,20.45,0,0,1,1.86-1.51c.55-.37,1.27-.38,1.78-.8" />
	<path class="bzuxibcvoiuaghwiueyfhg" d="M78.47,136.83c.45-.4.9-.8,1.37-1.17l-.6.47a4.42,4.42,0,0,1,.82-.53l-.71.31c.26-.11.53-.18.79-.28s.69-.27,1-.43a5.37,5.37,0,0,0,.94-.68,2.9,2.9,0,0,0,.62-3.28,2.25,2.25,0,0,0-.62-1A3,3,0,0,0,80,129.4l-.8.1a3,3,0,0,0-1.32.78l0,0,.61-.47a2.38,2.38,0,0,1-.44.25l.72-.31c-.28.12-.57.19-.84.3a6.3,6.3,0,0,0-1.47.73c-.75.56-1.46,1.16-2.17,1.78a2.25,2.25,0,0,0-.62,1,2.44,2.44,0,0,0-.26,1.16,2.37,2.37,0,0,0,.26,1.15,2.22,2.22,0,0,0,.62,1,3.09,3.09,0,0,0,2.12.88l.8-.11a3,3,0,0,0,1.33-.77Z" />
	<path class="uiqyweriuyizlxyhilayeifl" d="M212.83,193.06c2.53-15,4-22.91,3.48-34.79-.24-5.29-.86-10.49-1.74-18-2.13-18.1-4-25.38-3.48-25.51.81-.2,7.87,17.48,9.28,39.43a120,120,0,0,1-1.16,26.67c-1,6.09-2,9.09-4.06,16.82-6,22.46-8.34,37.76-8.7,37.69S209.59,212.33,212.83,193.06Z" />
	<path class="hzxuicvhiuhoiuagiuwerqh" d="M148.59,111.18a38.37,38.37,0,0,1-9.28,13.91c-2.78,2.73-8.24,8.08-16.24,9.28a25,25,0,0,1-11.59-1.16c0,.12,8.87,4.68,17.39,2.32C142.86,131.66,148.58,111.17,148.59,111.18Z" />
</svg>