<svg id="Layer_1" data-name="Layer 1" xmlns="http://www.w3.org/2000/svg" viewBox="0 0 300 300">
	<defs>
		<style>
		.uwuwuuifjaoihwefuzchvuhiauwheiufaywe {
			fill: #ffe94d;
		}
		
		.uwuwuuifjaoihwefuzchvuhiauwheiufaywe,
		.zxchviuiuoahoiuwyeiofuy,
		.fhzhvhvvhuljlzjayaefer {
			stroke: #fff;
		}
		
		.uwuwuuifjaoihwefuzchvuhiauwheiufaywe,
		.zxchviuiuoahoiuwyeiofuy,
		.fhzhvhvvhuljlzjayaefer,
		.zjxcoijawoiejfoaipjawefawfawegbb {
			stroke-miterlimit: 10;
		}
		
		.uwuwuuifjaoihwefuzchvuhiauwheiufaywe,
		.fhzhvhvvhuljlzjayaefer {
			stroke-width: 8px;
		}
		
		.zxchviuiuoahoiuwyeiofuy {
			stroke-width: 7px;
		}
		
		.zjxcoijawoiejfoaipjawefawfawegbb {
			stroke: #000;
			stroke-width: 6px;
		}
		</style>
	</defs>
	<path class="uwuwuuifjaoihwefuzchvuhiauwheiufaywe" d="M233.59,191.05c0-39.71-35.19-71.84-78.69-71.84s-78.69,32.13-78.69,71.84" />
	<path class="zxchviuiuoahoiuwyeiofuy" d="M227.49,233.81C235.12,211,248.4,170.65,258.9,135c1.57-5.33,4.6-15.88,1.25-18-1.29-.8-4.81-.75-29,23-17.14,16.84-22.25,23.58-26,22-3.38-1.42-2.56-8.32-3-28-.56-25.1-.93-37.66-5-39-6.43-2.11-19.62,19.75-24,27-11.55,19.15-13.15,30.22-18.36,30.2s-6.68-11.2-18.08-30.27c-3.81-6.37-17.43-29.16-24-27-4.07,1.34-4.44,13.91-5,39-.44,19.69.39,26.58-3,28-3.75,1.58-8.86-5.16-26-22-24.18-23.75-27.7-23.8-29-23-3.34,2.07-.32,12.62,1.26,18,10.5,35.63,23.78,76,31.41,98.79" />
	<path class="fhzhvhvvhuljlzjayaefer" d="M238.83,278.57V259.43a14.28,14.28,0,0,0-4.22-10.13,14.62,14.62,0,0,0-10.13-4.22H85.75A14.41,14.41,0,0,0,71.4,259.43V278H238.83V262.41" />
	<rect class="uwuwuuifjaoihwefuzchvuhiauwheiufaywe" x="81.71" y="227.98" width="146" height="17" />
	<polygon class="zjxcoijawoiejfoaipjawefawfawegbb" points="155.18 104.69 172.39 80.2 155.18 90.99 137.97 80.2 155.18 104.69" />
	<polygon class="zjxcoijawoiejfoaipjawefawfawegbb" points="154.71 77.62 177.03 64.22 154.71 25 132.4 63.11 154.71 77.62" />
</svg>