<svg id="Layer_1" data-name="Layer 1" xmlns="http://www.w3.org/2000/svg" viewBox="0 0 300 300">
	<defs>
		<style>
		.hzcxoiuvh9ipaowejfopiajwepofij,
		.hzcxoiuvh9ipaowejfopiazhucxviuhawiuoehfjwepofij,
		.hhznviuzhniuhawefzcv {
			fill: #fff;
		}
		
		.hzcxoiuvh9ipaowejfopiajwepofij,
		.hzcxoiuvh9ipaowejfopiazhucxviuhawiuoehfjwepofij,
		.huivhuizh8998h23,
		.hhznviuzhniuhawefzcv,
		.h987zhx9v8hq9823hr98zhx89cvh9q834ry {
			stroke: #000;
		}
		
		.hzcxoiuvh9ipaowejfopiajwepofij,
		.hzcxoiuvh9ipaowejfopiazhucxviuhawiuoehfjwepofij,
		.huivhuizh8998h23,
		.hhznviuzhniuhawefzcv,
		.h987zhx9v8hq9823hr98zhx89cvh9q834ry,
		.h987zhx9v8hq982jhzicvu089uq3hr98zhx89cvh9q834ry,
		.ioqyuwepiohjzoxhv978hq28374uhziughiuoyawer {
			stroke-miterlimit: 10;
		}
		
		.hzcxoiuvh9ipaowejfopiajwepofij {
			stroke-width: 6px;
		}
		
		.hzcxoiuvh9ipaowejfopiazhucxviuhawiuoehfjwepofij,
		.huivhuizh8998h23 {
			stroke-width: 5px;
		}
		
		.huivhuizh8998h23,
		.h987zhx9v8hq982jhzicvu089uq3hr98zhx89cvh9q834ry,
		.ioqyuwepiohjzoxhv978hq28374uhziughiuoyawer {
			fill: #ff007a;
		}
		
		.hhznviuzhniuhawefzcv {
			stroke-width: 7px;
		}
		
		.h987zhx9v8hq982jhzicvu089uq3hr98zhx89cvh9q834ry,
		.ioqyuwepiohjzoxhv978hq28374uhziughiuoyawer {
			stroke: #ff007a;
		}
		
		.h987zhx9v8hq982jhzicvu089uq3hr98zhx89cvh9q834ry {
			stroke-width: 4px;
		}
		
		.ioqyuwepiohjzoxhv978hq28374uhziughiuoyawer {
			stroke-width: 3px;
		}
		</style>
	</defs>
	<path class="hzcxoiuvh9ipaowejfopiajwepofij" d="M134.27,59.54c3-5.93,6.59-13,10.78-21.09s5.22-9.81,6.61-9.72c4.06.25,8.21,15.8,5.27,29.87a43,43,0,0,1-2.35,7.64" />
	<path class="hzcxoiuvh9ipaowejfopiazhucxviuhawiuoehfjwepofij" d="M137.52,109.69c-2.55-.14-3.85-2-5.34-4.32S128,97.84,128.36,95c0-.31.2-1.45-.48-2a1.32,1.32,0,0,0-.87-.21c-2.18.06-6.86-6.23-6.44-10.29a3,3,0,0,0-.42-2.19,2.64,2.64,0,0,0-1.45-.78c-3-.93-5.37-6.71-5.56-8.91a3.47,3.47,0,0,0-.53-1.65,3.25,3.25,0,0,0-1.12-1c-2-1.18-6.24-6.56-6.14-9.81a2.67,2.67,0,0,0-.48-1.86,2.24,2.24,0,0,0-1.17-.7c-2.69-.8-7.33-7.54-6.52-10.45a2,2,0,0,0,0-1.54A1.81,1.81,0,0,0,96,43c-3.3-.73-6.7-11.14-6.7-11.14-3.8-11.61-5.77-13.94-4.79-14.65,1.91-1.41,10.09,7,13,9.94,4.7,4.81,6.76,8.46,7.08,9.36a4.25,4.25,0,0,0,.61,1.13,4.36,4.36,0,0,0,1.59,1.26C109,40,115,45.3,114.34,48a1.7,1.7,0,0,0,0,1.26c.36.68,1.34.81,1.66.86,3.47.61,8.6,7,8.19,9.69a1.22,1.22,0,0,0,1.47,1.69c2.72-.06,7,5.73,6.7,8.47a2.42,2.42,0,0,0,.2,1.36,2.8,2.8,0,0,0,1.52,1.22c2.68,1.09,7.41,5.77,7.15,8.62a2,2,0,0,0,.19,1.36,2.61,2.61,0,0,0,2,.89c2.21.26,3,2.91,6.2,6.6s4.84,3.92,4.8,6.31a7.52,7.52,0,0,1-1.19,3.57c-2.64,4.81-8,7.12-11.3,8.52C139.87,109.33,138.83,109.76,137.52,109.69Z" />
	<path class="hzcxoiuvh9ipaowejfopiazhucxviuhawiuoehfjwepofij" d="M127.88,93.07a16.2,16.2,0,0,0,8.32-3.32,15,15,0,0,0,5.23-7.18" />
	<path class="hzcxoiuvh9ipaowejfopiazhucxviuhawiuoehfjwepofij" d="M120.15,80.38a19.75,19.75,0,0,0,8-3.91,18.56,18.56,0,0,0,4.38-5.1" />
	<path class="hzcxoiuvh9ipaowejfopiazhucxviuhawiuoehfjwepofij" d="M112.61,69a26.8,26.8,0,0,0,7.16-3.63,26.23,26.23,0,0,0,4.62-4.21" />
	<path class="hzcxoiuvh9ipaowejfopiazhucxviuhawiuoehfjwepofij" d="M104.87,56.35a22,22,0,0,0,5.48-3.06,21.21,21.21,0,0,0,4-4" />
	<path class="hzcxoiuvh9ipaowejfopiazhucxviuhawiuoehfjwepofij" d="M97.14,43.66a15.62,15.62,0,0,0,5.31-3,14.57,14.57,0,0,0,2.69-3.07" />
	<path class="huivhuizh8998h23" d="M151,70.73c.82-3.31,3.67-12.89,12.7-19.05,7.56-5.16,15.42-5.15,20.32-5.08,30.29.45,53,27.85,52.07,29.21-.37.54-4.47-2.83-11.43-2.54a19.82,19.82,0,0,0-6.35,1.27c-11.49,4.68-31.32-6.08-31.75-5.08s12.78,10.79,31.75,11.43c4.12.14,3.9-.31,6.35,0,18.79,2.43,28.91,28.92,30.48,33,6.94,18.17,5.22,35.36,3.81,35.56-1.12.16-.19-10.62-7.62-16.51-8.27-6.55-20.55-2-24.13-8.89A14.48,14.48,0,0,1,226,119s.66,3.25,1.27,5.08c2.52,7.56,10.48,9.28,16.51,14,9.71,7.57,11.57,20.6,12.7,29.21a60.86,60.86,0,0,1-2.54,26.67c-.52,1.73-3.11,10.42-5.08,10.16-1.46-.18-1.29-5.29-2.54-11.43-2.91-14.31-11.8-24.58-12.7-24.13s4.47,8.85,7.62,24.13c2.85,13.83,1.64,21.9,1.27,24.13A55.39,55.39,0,0,1,237.39,232c-2.61,5.22-7.81,13.55-10.16,12.7-1.46-.52-.87-4.22-1.27-10.16a63.91,63.91,0,0,0-3.81-17.78" />
	<path class="hhznviuzhniuhawefzcv" d="M152.45,128.62a32.75,32.75,0,0,1-4.7,7.81,34.61,34.61,0,0,1-7.84,7,32.94,32.94,0,0,1-9,4.3c-9.18,2.59-12.14-2.58-20.65-.88-7.53,1.51-12.85,7.06-14.82,9.12-6,6.22-6.25,11.4-11.4,12.54-2.83.63-6.82,0-8-2.28a4.46,4.46,0,0,1,0-3.42c2.59-8,12.45-17.19,12.54-17.1a33.42,33.42,0,0,0-8,8c-1.66,2.31-2.92,4.63-5.92,7.2-1.69,1.45-2.53,2.2-3.59,2.39-5.36,1-13.15-7.58-13.15-15.55,0-4.47,2.35-7.84,4.78-10.76C90,104.19,91.12,99.23,91.45,96.32c.73-6.39-1.31-11,2.4-15.55,2.32-2.83,4.71-2.91,10.76-6,7.49-3.8,8.71-6.15,14.35-9.57,0,0,8.31-5,21.53-7.17,12.59-2,22.57,1.74,29.48,4.16a86,86,0,0,1,23.14,12.58,87.68,87.68,0,0,1,20.27,19.4c7.55,10.16,10.8,19.47,13.06,26.13,4.15,12.2,5.08,21.89,5.94,30.87a186.15,186.15,0,0,1,0,33.25,195,195,0,0,1-3.56,23.75c-3.45,16.09-5.44,15.28-7.13,26.12-2.55,16.39.41,28.43-3.56,29.69-1.51.48-3.15-.87-3.56-1.19C201,252.47,92.34,276.15,85.47,254.18c-5.84-18.73,19.64-56.56,44.25-73,4.95-3.29,14.93-10,20.33-22.73C154.77,147.45,153.94,136.38,152.45,128.62Z" />
	<path class="hzcxoiuvh9ipaowejfopiajwepofij" d="M235.08,283V263.87a14.31,14.31,0,0,0-4.21-10.14,14.75,14.75,0,0,0-10.14-4.22H82a14.4,14.4,0,0,0-14.36,14.36v18.52H235.08V266.84" />
	<path class="hzcxoiuvh9ipaowejfopiajwepofij" d="M149.74,66.16C156,55.78,160.51,47.07,163.6,40.83c3.54-7.14,5-10.71,7.24-10.65,4,.1,7.79,11.78,7.76,21.55a40.89,40.89,0,0,1-5.41,19.84" />
	<path class="h987zhx9v8hq9823hr98zhx89cvh9q834ry" d="M119.24,82.55c-2.82-.49-9.36-1.36-14.2,1-2.65,1.28-5.61,3.92-4.25,5.28,1.62,1.63,9.58,1.62,14.2-1A8.6,8.6,0,0,0,119.24,82.55Z" />
	<path class="h987zhx9v8hq982jhzicvu089uq3hr98zhx89cvh9q834ry" d="M116.54,212.41c-.42-.72,11.36-6.42,23.94-18.24,5-4.7,10.42-9.8,14.82-17.1,11.53-19.16,7.75-39.9,9.12-39.9,1.13,0,3.22,11.55,1.14,23.94A52,52,0,0,1,161,175.93c-4,8.13-9.07,12.88-14.82,18.24a94.67,94.67,0,0,1-17.1,12.54C123.35,210,116.84,213,116.54,212.41Z" />
	<path d="M78.49,140.42c.22-.48.44-.95.67-1.42a8.93,8.93,0,0,1,.72-1.28l-.47.61a3.47,3.47,0,0,1,.6-.55,4.07,4.07,0,0,0,1-1.26,3.15,3.15,0,0,0,.3-2.31,2.27,2.27,0,0,0-.53-1,2.33,2.33,0,0,0-.85-.77,3,3,0,0,0-4.1,1.07,1.73,1.73,0,0,1-.2.32l.47-.6a6.07,6.07,0,0,1-.65.59,5.22,5.22,0,0,0-.77.92,3.82,3.82,0,0,0-.29.48c-.4.71-.74,1.45-1.09,2.19a2.34,2.34,0,0,0-.35,1.12,2.66,2.66,0,0,0,.59,2.21,2.15,2.15,0,0,0,.84.77,3,3,0,0,0,2.31.31,3,3,0,0,0,1.8-1.38Z" />
	<path class="h987zhx9v8hq982jhzicvu089uq3hr98zhx89cvh9q834ry" d="M215.68,196.24c2.59-15.36,4.13-23.45,3.56-35.62-.25-5.42-.87-10.75-1.78-18.41-2.18-18.54-4.1-26-3.56-26.12.83-.2,8.06,17.9,9.5,40.37a122.52,122.52,0,0,1-1.19,27.31c-1,6.23-2,9.3-4.15,17.22-6.14,23-8.55,38.66-8.91,38.6S212.36,216,215.68,196.24Z" />
	<path class="ioqyuwepiohjzoxhv978hq28374uhziughiuoyawer" d="M149.85,115.23a39.09,39.09,0,0,1-9.5,14.25c-2.85,2.79-8.44,8.27-16.63,9.5a25.86,25.86,0,0,1-11.87-1.18c0,.12,9.09,4.78,17.81,2.37C144,136.21,149.84,115.23,149.85,115.23Z" />
</svg>