<svg id="Layer_1" data-name="Layer 1" xmlns="http://www.w3.org/2000/svg" viewBox="0 0 300 300">
	<defs>
		<style>
		.bhubhbiuhbiouhiougewuiyofgayuigwefguyiagweuyifguaiywgefyugzuiygcxv {
			fill: #ffe94d;
		}
		
		.bhubhbiuhbiouhiougewuiyofgayuigwefguyiagweuyifguaiywgefyugzuiygcxv,
		.fjf99ew090hj09tuuy,
		.zchviuhiauhweu8732 {
			stroke: #000;
			stroke-miterlimit: 10;
		}
		
		.bhubhbiuhbiouhiougewuiyofgayuigwefguyiagweuyifguaiywgefyugzuiygcxv,
		.fjf99ew090hj09tuuy {
			stroke-width: 8px;
		}
		
		.fjf99ew090hj09tuuy {
			fill: #fff;
		}
		
		.zchviuhiauhweu8732 {
			stroke-width: 6px;
		}
		</style>
	</defs>
	<path class="bhubhbiuhbiouhiougewuiyofgayuigwefguyiagweuyifguaiywgefyugzuiygcxv" d="M228.88,190.07c0-39.71-35.19-71.85-78.69-71.85S71.5,150.36,71.5,190.07" />
	<path class="fjf99ew090hj09tuuy" d="M222.78,225.82c7.63-22.83,20.91-63.15,31.41-98.79,1.57-5.34,4.6-15.89,1.25-18-1.29-.8-4.81-.76-29,23-17.14,16.83-22.25,23.57-26,22-3.38-1.42-2.56-8.32-3-28-.56-25.1-.93-37.66-5-39-6.43-2.12-19.62,19.74-24,27-11.55,19.13-13.12,30.21-18.36,30.18S143.4,133.07,132,114c-3.81-6.37-17.43-29.16-24-27-4.07,1.34-4.44,13.9-5,39-.44,19.68.39,26.58-3,28-3.75,1.57-8.86-5.17-26-22-24.18-23.75-27.7-23.8-29-23-3.35,2.07-.32,12.61,1.25,18,10.5,35.64,23.79,76,31.42,98.79" />
	<path class="fjf99ew090hj09tuuy" d="M234.12,274.58V255.45a14.32,14.32,0,0,0-4.22-10.14,14.67,14.67,0,0,0-10.13-4.21H81a14.39,14.39,0,0,0-14.35,14.35V274H234.12V258.42" />
	<rect class="bhubhbiuhbiouhiougewuiyofgayuigwefguyiagweuyifguaiywgefyugzuiygcxv" x="77" y="224" width="146" height="17" />
	<polygon class="zchviuhiauhweu8732" points="150.49 104.7 168.35 79.29 150.49 90.49 132.63 79.29 150.49 104.7" />
	<polygon class="zchviuhiauhweu8732" points="150 76.61 173.16 62.71 150 22 126.84 61.55 150 76.61" />
</svg>